<mxfile host="app.diagrams.net" modified="2024-01-30T03:06:32.546Z" agent="Mozilla/5.0 (Windows NT 10.0; Win64; x64) AppleWebKit/537.36 (KHTML, like Gecko) Chrome/121.0.0.0 Safari/537.36 Edg/121.0.0.0" version="23.0.2" etag="vDPy62vrPPV84aUy4P6O" type="github">
  <diagram name="Page-1" id="x-FH29JgtIQv-g02PhZ6">
    <mxGraphModel>
      <root>
        <mxCell id="0" />
        <mxCell id="1" parent="0" />
      </root>
    </mxGraphModel>
  </diagram>
</mxfile>
